<svg width="550" height="724" viewBox="0 0 550 724" fill="none" xmlns="http://www.w3.org/2000/svg">
<path fill-rule="evenodd" clip-rule="evenodd" d="M351.772 175.252C351.772 174.48 340.868 173.854 327.415 173.854C327.197 173.854 326.982 173.855 326.766 173.855L326.283 171.438H325.677L326.827 0H326.617H326.45H325.838L325.091 171.438H324.85L323.994 173.868C312.162 173.963 303.059 174.546 303.059 175.252L292.53 204.603C292.53 205.374 307.468 206 325.896 206C344.323 206 359.261 205.374 359.261 204.603L351.772 175.252Z" fill="#8888F2"/>
<path fill-rule="evenodd" clip-rule="evenodd" d="M412.236 272.439C412.016 272.439 411.798 272.439 411.579 272.439L411.092 269.992H410.315L410.386 261.132L411.43 159.978H411.261L411.009 183.966L411.641 0H410.643L409.78 269.992H409.645L408.78 272.453C396.83 272.55 387.634 273.14 387.634 273.853L377 303.568C377 304.349 392.089 304.983 410.7 304.983C429.313 304.983 444.402 304.349 444.402 303.568L436.838 273.853C436.838 273.072 425.823 272.439 412.236 272.439Z" fill="#8888F2"/>
<path fill-rule="evenodd" clip-rule="evenodd" d="M207.081 433.102C207.081 433.102 198.711 436.528 197.195 435.81C195.678 435.091 194.275 434.4 194.275 434.4C194.275 434.4 190.644 434.989 188.825 432.995C188.825 432.995 185.193 433.584 182.979 431.738C180.765 429.893 177.545 427.208 177.545 427.208C177.545 427.208 174.653 423.639 176.782 423.297L178.265 423.647C178.265 423.647 180.956 422.958 182.727 425.662C182.727 425.662 185.104 424.777 186.318 426.267C186.318 426.267 192.319 423.228 193.552 423.397C193.552 423.397 185.904 422.92 184.146 421.181C182.387 419.443 182.584 417.082 184.98 417.647C187.375 418.212 190.766 418.649 192.671 418.737C194.578 418.826 203.922 418.018 207.842 419.785C211.761 421.55 215.552 424.369 216.712 426.087C217.873 427.804 218.204 430.051 218.204 430.051L214.535 439.91L209.167 442.242L207.296 440.123L207.081 433.102Z" fill="#FFC9A0"/>
<path d="M200.911 431.289C200.911 431.289 197.384 432.966 196.867 432.604C196.351 432.242 195.114 429.822 194.179 429.703C193.244 429.585 192.619 431.724 194.276 434.4" stroke="#FFAD71" stroke-width="0.825071" stroke-linecap="round" stroke-linejoin="round"/>
<path d="M188.825 432.996C188.825 432.996 184.356 430.499 182.727 425.662" stroke="#FFAD71" stroke-width="0.825071" stroke-linecap="round" stroke-linejoin="round"/>
<path d="M186.318 426.268C186.318 426.268 190.88 430.928 193.594 429.981" stroke="#FFAD71" stroke-width="0.825071" stroke-linecap="round" stroke-linejoin="round"/>
<path fill-rule="evenodd" clip-rule="evenodd" d="M345.952 427.137C345.952 427.137 344.496 422.763 345.981 422.763C347.466 422.763 351.808 421.539 352.611 421.08C353.414 420.621 356.605 419.953 357.077 417.796L364.193 412.58C364.193 412.58 366.312 409.057 366.915 407.088C367.772 404.293 367.032 403.173 365.705 404.565C364.378 405.957 362.051 411.021 360.284 410.694C360.284 410.694 362.573 402.123 362.514 401.287C362.395 399.66 360.446 399.252 360.119 399.776C359.791 400.3 359.333 401.87 359.333 401.87C359.333 401.87 358.185 399.804 356.225 401.15C355.272 401.805 353.74 407.707 353.74 407.707C353.74 407.707 354.416 402.895 353.655 402.895C352.895 402.895 351.92 402.093 351.182 404.193C350.444 406.292 349.309 407.994 349.309 407.994C349.309 407.994 346.925 407.597 345.675 408.845C344.426 410.092 336.477 416.049 336.307 418.035C336.137 420.021 332.791 429.531 332.791 429.531L332.447 434.6L340.679 439.48L345.952 427.137Z" fill="#FFC9A0"/>
<path d="M349.792 414.916L353.74 407.707" stroke="#FFAD71" stroke-width="1.03171" stroke-linecap="round" stroke-linejoin="round"/>
<path d="M359.333 401.871L357.157 409.398L353.74 415.505" stroke="#FFAD71" stroke-width="1.03171" stroke-linecap="round" stroke-linejoin="round"/>
<path d="M349.308 407.994C349.308 407.994 347.958 411.796 344.758 413.394" stroke="#FFAD71" stroke-width="1.03171" stroke-linecap="round" stroke-linejoin="round"/>
<path d="M360.283 410.694L358.036 414.915" stroke="#FFAD71" stroke-width="1.03171" stroke-linecap="round" stroke-linejoin="round"/>
<path d="M178.264 423.648L182.98 431.739" stroke="#FFAD71" stroke-width="0.825071" stroke-linecap="round" stroke-linejoin="round"/>
<path fill-rule="evenodd" clip-rule="evenodd" d="M281.538 337.49C281.538 337.49 261.943 329.284 269.582 383.113L283.641 385.94L288.681 366.714L281.538 337.49Z" fill="#674500"/>
<path fill-rule="evenodd" clip-rule="evenodd" d="M278.008 381C278.008 381 250.359 382.563 247.519 388.389C244.678 394.213 230.778 436.036 228.833 436.185C226.891 436.334 223.004 432.003 221.659 428.12C220.314 424.236 219.118 424.236 219.118 424.236C219.118 424.236 212.976 437.697 210.734 436.95C208.492 436.204 221.061 462.324 227.937 462.175C234.813 462.025 248.565 454.109 254.395 436.185C254.395 436.185 254.544 451.122 255.89 455.154C257.235 459.188 253.498 466.656 255.441 467.552C257.384 468.448 292.848 470.347 300.434 466.058C304.133 463.968 311.495 466.656 314.484 465.759C317.475 464.864 323.602 465.013 323.602 465.013C323.602 465.013 334.216 474.573 339.149 463.669C344.081 452.765 346.174 432.153 345.875 425.133C345.875 425.133 337.504 439.322 334.963 432.153L332.422 424.983C332.422 424.983 332.099 395.558 329.122 393.467C326.144 391.376 305.747 384.826 305.747 384.826L278.008 381Z" fill="#FFAB00"/>
<path fill-rule="evenodd" clip-rule="evenodd" d="M323.812 341.095C323.812 341.095 320.301 314.016 295.758 322.727C276.074 329.713 274.268 354.29 287.118 363.38C299.969 372.469 323.812 341.095 323.812 341.095Z" fill="#855900"/>
<path d="M277.5 336.5C275.1 339.7 277.833 342.833 279 344C279 342.4 280.333 338 281 336C281.167 334.833 279.9 333.3 277.5 336.5Z" fill="#FFAB00"/>
<path fill-rule="evenodd" clip-rule="evenodd" d="M322.355 339.875C322.355 339.875 325.166 351.541 320.237 356.584C320.237 356.584 321.605 365.627 318.823 366.358C317 366.837 317 367 317 367C317 367 315.276 374.884 308.952 377.686C306.764 378.033 303.544 376.712 303.544 376.712C303.544 376.712 301.955 384.075 307.027 384.966C307.027 384.966 305.254 389.914 301.353 389.093L294.647 405.084C289.488 399.926 279.626 381.27 277.108 381.871C277.108 381.871 284.72 375.306 285.901 361.127L286.364 358.007C286.364 358.007 281.471 351.764 286.388 347.992C291.305 344.22 293.089 354.52 293.089 354.52C293.089 354.52 295.487 349.894 299.461 349.295C303.436 348.695 303.722 345.433 303.544 343.838C303.369 342.242 309.642 335.837 322.355 339.875Z" fill="#FFC9A0"/>
<path d="M303.932 376.712C303.932 376.712 295.163 374.133 289.488 361.237C289.947 365.947 293.478 375.636 303.932 376.712Z" fill="#FFAD71"/>
<path fill-rule="evenodd" clip-rule="evenodd" d="M309.39 716.032C309.39 716.032 317.544 720.231 318.177 724.397H294.195C294.036 721.887 288.141 713.853 286.715 713.532C286.715 713.532 285.131 722.039 285.289 724.397H281.804C281.804 724.397 278.319 706.963 278.953 704.079C279.587 701.195 282.438 697.19 282.438 697.19L309.39 716.032Z" fill="#76254F"/>
<path fill-rule="evenodd" clip-rule="evenodd" d="M313.543 588C313.543 588 314.424 603.872 312.025 608.012C312.025 608.012 311.371 633.731 310.061 638.308C308.753 642.885 299.81 679.283 300.028 682.988C300.247 686.693 301.991 714.156 309.625 716.771C309.625 716.771 297.682 719.206 295.386 715.681C293.088 712.156 282.185 702.395 282.345 699.991C282.505 697.588 284.429 697.108 284.75 692.621C285.07 688.135 287.208 649.563 285.017 638.561C282.826 627.559 295.261 589.575 295.261 589.575L313.543 588Z" fill="#FFAD71"/>
<path fill-rule="evenodd" clip-rule="evenodd" d="M258.799 697.067C258.799 697.067 255.386 699.922 253.461 704.087C251.537 708.253 245.743 722.795 247.666 724.397H266.739C268.823 723.757 269.519 723.315 269.026 718.027L258.799 697.067Z" fill="#76254F"/>
<path fill-rule="evenodd" clip-rule="evenodd" d="M298.236 460.744C296.28 458.038 296.253 441.551 294.481 428.197C293.971 424.36 293.568 421.329 293.369 420.555C292.62 417.665 293.497 403.644 293.527 403.083L294.36 403.949C294.353 404.084 297.082 457.426 299.053 460.154L298.236 460.744Z" fill="#C28200"/>
<path fill-rule="evenodd" clip-rule="evenodd" d="M254.896 436.238L253.894 436.131C253.916 435.919 255.033 423.803 254.39 418.446C253.749 413.113 252.392 406.475 249.202 392.036L250.116 391.609C250.35 392.109 255.857 403.923 256.516 409.416C257.172 414.886 254.99 435.369 254.896 436.238Z" fill="#C28200"/>
<path fill-rule="evenodd" clip-rule="evenodd" d="M323.1 465.056L321.729 448.946C321.741 448.616 323.036 422.497 323.906 415.764C324.774 409.037 327.39 395.284 327.417 395.146L324.568 426.56C324.542 426.698 324.106 464.97 324.106 464.97L323.1 465.056Z" fill="#C28200"/>
<path fill-rule="evenodd" clip-rule="evenodd" d="M294.919 594.278C294.919 594.278 295.735 600.42 293.174 603.407C290.612 606.395 286.555 622.395 286.555 625.169C286.555 627.943 279.937 652.051 279.083 655.038C278.228 658.024 271.237 679.359 272.518 684.052C273.8 688.746 267.895 716.694 267.895 716.694C265.973 716.694 254.977 715.201 251.134 716.694C251.134 716.694 257.091 700.907 258.799 697.067C258.799 697.067 260.507 685.332 261.361 684.052C262.215 682.772 259.534 637.606 260.293 628.582C261.062 619.458 265.088 608.647 267.126 602.127C267.59 600.641 268.782 596.123 268.782 596.123L294.919 594.278Z" fill="#FFC9A0"/>
<path fill-rule="evenodd" clip-rule="evenodd" d="M324.239 453.416V450.346C324.249 448.882 326.76 442.076 328.074 440.879C328.759 440.156 331.418 432.573 332.422 424.983L332.923 426.393C332.426 430.143 330.711 441.121 329.462 442.259C328.363 443.261 324.248 452.207 324.239 453.416Z" fill="#C28200"/>
<path fill-rule="evenodd" clip-rule="evenodd" d="M257.171 465.53C236.823 494.57 247.141 560.078 238.791 594.912C238.791 594.912 321.204 614.307 338.269 583.861C338.269 583.861 325.878 501.514 326.338 497.523C326.798 493.531 320.863 464.091 320.863 464.091L320.127 462.304L257.171 465.53Z" fill="#484848"/>
<path d="M504 383.273C416.194 412.501 417 358.192 442.087 361.114C467.174 364.037 442.787 432.311 344.445 455.693C246.102 479.076 161.01 411.705 112.515 383.273C47.4197 345.108 19.2803 371.652 53.2618 435.941C71 469.5 95.451 533.365 0 465.418" stroke="#C5C5FC" stroke-linecap="round" stroke-linejoin="round" stroke-dasharray="2 2"/>
<path fill-rule="evenodd" clip-rule="evenodd" d="M8 554H456V545H8V554Z" fill="#674500"/>
<path d="M84 529C88 500.5 77.5114 479.947 77.5114 479.947C77.5114 479.947 71.6567 476.353 65.5244 474.729" stroke="#3C3CAD" stroke-width="1.01166"/>
<path fill-rule="evenodd" clip-rule="evenodd" d="M101.994 418.053C104.445 418.499 105.945 421.593 105.945 421.593C116.312 433.715 109.225 461.304 105.945 465.996C102.666 470.687 94.6 469.802 94.5988 469.802L101.994 418.053Z" fill="#008392"/>
<path fill-rule="evenodd" clip-rule="evenodd" d="M76.4739 468.765C65.3604 451.916 50.9874 455.152 50.9874 455.152L51.1832 455.335C52.2387 455.469 53.5879 455.673 55.285 455.941C65.6572 457.582 77.5114 479.948 77.5114 479.948C79.8188 476.688 76.4739 468.765 76.4739 468.765Z" fill="#0AAEC2"/>
<mask id="mask0" mask-type="alpha" maskUnits="userSpaceOnUse" x="48" y="455" width="30" height="25">
<path fill-rule="evenodd" clip-rule="evenodd" d="M48 455.153H77.5111V479.948H48V455.153Z" fill="white"/>
</mask>
<g mask="url(#mask0)">
<path fill-rule="evenodd" clip-rule="evenodd" d="M55.2847 455.941C53.5883 455.673 52.239 455.469 51.1836 455.335C45.786 454.653 48.1343 455.827 51.7284 459.818C56.0254 464.59 62.428 474.431 65.5242 474.729C68.6203 475.027 77.5111 479.948 77.5111 479.948C77.5111 479.948 65.6575 457.582 55.2847 455.941Z" fill="#008392"/>
</g>
<path fill-rule="evenodd" clip-rule="evenodd" d="M82.9851 453.916C83.6483 445.878 86.4147 437.421 86.8952 435.407C87.7351 431.883 94.739 422.015 98.9417 418.915C100.069 418.083 101.095 417.89 101.995 418.053L94.599 469.801L87.8053 468.558L86.8952 468.391C83.1731 465.734 82.4883 459.943 82.9851 453.916Z" fill="#0AAEC2"/>
<path d="M101.994 418.709L94.5988 470.457C94.5988 470.457 85.7182 518.118 87.7763 526.38" stroke="#3C3CAD" stroke-width="0.889672"/>
<path fill-rule="evenodd" clip-rule="evenodd" d="M85.1662 504.614H68.9855C68.9855 524.025 76.765 544.069 76.765 544.069H85.1662H93.5674C93.5674 544.069 101.347 524.025 101.347 504.614H85.1662Z" fill="#6464DC"/>
<path fill-rule="evenodd" clip-rule="evenodd" d="M76.6328 544.091C76.6328 544.091 68.854 524.048 68.854 504.635H73.995C73.995 504.635 73.1203 510.381 73.2759 516.891C73.6424 532.218 78.0121 543.635 79.783 544.091H76.6328Z" fill="#282796"/>
<path fill-rule="evenodd" clip-rule="evenodd" d="M313.464 430.42H161.539C158.814 430.42 156.798 432.636 157.036 435.369L164.577 521.806C164.815 524.539 167.218 526.754 169.943 526.754H321.869C324.594 526.754 326.61 524.539 326.372 521.806L318.83 435.369C318.592 432.636 316.19 430.42 313.464 430.42Z" fill="#484848"/>
<path fill-rule="evenodd" clip-rule="evenodd" d="M169.635 523.22C168.856 523.22 168.17 522.587 168.102 521.806L160.564 435.407C160.494 434.605 161.085 433.955 161.885 433.955H313.773C314.551 433.955 315.238 434.588 315.306 435.368L322.847 521.806C322.916 522.587 322.34 523.22 321.56 523.22H169.635Z" fill="#3C3CAD"/>
<path fill-rule="evenodd" clip-rule="evenodd" d="M325.295 509.514H163.504L164.577 521.806C164.815 524.539 167.218 526.755 169.943 526.755H321.864C324.59 526.755 326.606 524.539 326.367 521.806L325.295 509.514Z" fill="#DBDBDB"/>
<path fill-rule="evenodd" clip-rule="evenodd" d="M248.415 518.134C248.573 519.942 247.24 521.407 245.437 521.407C243.635 521.407 242.046 519.942 241.888 518.134C241.731 516.327 243.064 514.861 244.866 514.861C246.669 514.861 248.258 516.327 248.415 518.134Z" fill="#B0B0B0"/>
<path fill-rule="evenodd" clip-rule="evenodd" d="M256.429 526.754L252.808 540.754C252.808 540.754 253.152 544.647 256.797 545.388H230.431C224.374 543.905 225.332 540.754 225.332 540.754L228.953 526.754H256.429Z" fill="#B0B0B0"/>
<path fill-rule="evenodd" clip-rule="evenodd" d="M255.868 528.924H228.392L228.953 526.755H256.429L255.868 528.924Z" fill="#717171"/>
<path fill-rule="evenodd" clip-rule="evenodd" d="M318.689 491.1H212.465C211.678 491.1 210.986 490.461 210.917 489.673L208.044 456.749C207.975 455.959 208.557 455.32 209.343 455.32H315.567C316.353 455.32 317.046 455.959 317.115 456.749L319.987 489.673C320.056 490.461 319.474 491.1 318.689 491.1Z" fill="#282796"/>
<path opacity="0.8" fill-rule="evenodd" clip-rule="evenodd" d="M332.63 481.049H226.407C225.62 481.049 224.928 480.41 224.859 479.621L221.986 446.697C221.917 445.908 222.499 445.269 223.286 445.269H329.509C330.295 445.269 330.988 445.908 331.057 446.697L333.929 479.621C333.998 480.41 333.416 481.049 332.63 481.049Z" fill="white"/>
<path fill-rule="evenodd" clip-rule="evenodd" d="M323.761 474.013H309.885C309.351 474.013 308.88 473.58 308.833 473.043L308.743 471.999C308.695 471.462 309.091 471.029 309.625 471.029H323.5C324.034 471.029 324.505 471.462 324.552 471.999L324.643 473.043C324.69 473.58 324.295 474.013 323.761 474.013Z" fill="#F75961"/>
<path fill-rule="evenodd" clip-rule="evenodd" d="M289.778 457.903H257.244C256.584 457.903 256.096 458.439 256.154 459.101C256.212 459.763 256.794 460.299 257.453 460.299H289.986C290.646 460.299 291.135 459.763 291.076 459.101C291.019 458.439 290.437 457.903 289.778 457.903Z" fill="#B0B0B0"/>
<path fill-rule="evenodd" clip-rule="evenodd" d="M280.452 464.836H257.417C256.758 464.836 256.27 465.373 256.328 466.035C256.385 466.697 256.967 467.233 257.627 467.233H280.661C281.321 467.233 281.809 466.697 281.751 466.035C281.694 465.373 281.111 464.836 280.452 464.836Z" fill="#B0B0B0"/>
<path fill-rule="evenodd" clip-rule="evenodd" d="M250.18 461.08C250.561 465.454 247.335 468.999 242.973 468.999C238.611 468.999 234.766 465.454 234.385 461.08C234.002 456.705 237.23 453.16 241.591 453.16C245.953 453.16 249.799 456.705 250.18 461.08Z" fill="#B0B0B0"/>
<mask id="mask1" mask-type="alpha" maskUnits="userSpaceOnUse" x="234" y="453" width="17" height="16">
<path fill-rule="evenodd" clip-rule="evenodd" d="M234.384 461.08C234.765 465.454 238.611 469 242.973 469C247.335 469 250.562 465.454 250.179 461.08C249.798 456.705 245.954 453.16 241.591 453.16C237.229 453.16 234.003 456.705 234.384 461.08Z" fill="white"/>
</mask>
<g mask="url(#mask1)">
<path fill-rule="evenodd" clip-rule="evenodd" d="M238.368 467.789C238.368 467.789 236.094 461.933 237.008 459.098L246.259 457.717L248.246 466.423L248.446 468.722L241.796 470.246L238.368 467.789Z" fill="#FF8D38"/>
</g>
<mask id="mask2" mask-type="alpha" maskUnits="userSpaceOnUse" x="234" y="453" width="17" height="16">
<path fill-rule="evenodd" clip-rule="evenodd" d="M234.384 461.08C234.765 465.454 238.611 469 242.973 469C247.335 469 250.562 465.454 250.179 461.08C249.798 456.705 245.954 453.16 241.591 453.16C237.229 453.16 234.003 456.705 234.384 461.08Z" fill="white"/>
</mask>
<g mask="url(#mask2)">
<path fill-rule="evenodd" clip-rule="evenodd" d="M246.575 468.399C246.575 468.399 245.494 467.67 245.416 465.407L240.444 465.473C240.444 465.473 241.142 468.154 240.14 468.55L240.198 469.722L246.165 470.012L246.575 468.399Z" fill="#FFAD71"/>
</g>
<mask id="mask3" mask-type="alpha" maskUnits="userSpaceOnUse" x="234" y="453" width="17" height="16">
<path fill-rule="evenodd" clip-rule="evenodd" d="M234.384 461.08C234.765 465.454 238.611 469 242.973 469C247.335 469 250.562 465.454 250.179 461.08C249.798 456.705 245.954 453.16 241.591 453.16C237.229 453.16 234.003 456.705 234.384 461.08Z" fill="white"/>
</mask>
<g mask="url(#mask3)">
<path fill-rule="evenodd" clip-rule="evenodd" d="M245.735 461.035C245.735 461.035 246.275 464.224 246.039 464.758C245.802 465.29 245.394 466.333 244.444 466.936C243.494 467.54 241.927 467.611 240.867 466.224C239.807 464.838 239.09 463.192 238.837 462.354C238.585 461.518 240.163 456.289 240.163 456.289L243.788 457.117L245.735 461.035Z" fill="#FFC9A0"/>
</g>
<mask id="mask4" mask-type="alpha" maskUnits="userSpaceOnUse" x="234" y="453" width="17" height="16">
<path fill-rule="evenodd" clip-rule="evenodd" d="M234.384 461.08C234.765 465.454 238.611 469 242.973 469C247.335 469 250.562 465.454 250.179 461.08C249.798 456.705 245.954 453.16 241.591 453.16C237.229 453.16 234.003 456.705 234.384 461.08Z" fill="white"/>
</mask>
<g mask="url(#mask4)">
<path fill-rule="evenodd" clip-rule="evenodd" d="M239.717 464.409C239.717 464.409 238.04 464.784 238.027 462.136L238.811 462.122L239.717 464.409Z" fill="#FFC9A0"/>
</g>
<mask id="mask5" mask-type="alpha" maskUnits="userSpaceOnUse" x="234" y="453" width="17" height="16">
<path fill-rule="evenodd" clip-rule="evenodd" d="M234.384 461.08C234.765 465.454 238.611 469 242.973 469C247.335 469 250.562 465.454 250.179 461.08C249.798 456.705 245.954 453.16 241.591 453.16C237.229 453.16 234.003 456.705 234.384 461.08Z" fill="white"/>
</mask>
<g mask="url(#mask5)">
<path fill-rule="evenodd" clip-rule="evenodd" d="M245.8 461.457C245.8 461.457 247.326 462.271 246.567 463.419C246.25 463.897 246.081 463.772 246.081 463.772L245.8 461.457Z" fill="#FFC9A0"/>
</g>
<mask id="mask6" mask-type="alpha" maskUnits="userSpaceOnUse" x="234" y="453" width="17" height="16">
<path fill-rule="evenodd" clip-rule="evenodd" d="M234.384 461.08C234.765 465.454 238.611 469 242.973 469C247.335 469 250.562 465.454 250.179 461.08C249.798 456.705 245.954 453.16 241.591 453.16C237.229 453.16 234.003 456.705 234.384 461.08Z" fill="white"/>
</mask>
<g mask="url(#mask6)">
<path fill-rule="evenodd" clip-rule="evenodd" d="M239.647 460.918C239.133 460.981 238.972 460.534 238.972 460.534C238.972 460.534 239.573 461.755 238.811 462.123C238.049 462.49 237.559 461.834 237.212 461.117C236.865 460.399 236.741 459.182 237.103 458.655C237.465 458.128 237.509 457.6 237.477 457.472C237.444 457.345 239.043 455.884 239.814 455.639C240.992 455.265 243.343 455.525 244.539 455.994C244.952 456.157 245.948 457.177 246.259 457.717C246.569 458.255 246.866 459.401 246.844 459.943C246.821 460.483 246.688 461.858 245.868 461.895L245.735 461.035C245.735 461.035 244.852 460.704 244.527 459.739C244.527 459.739 241.796 458.563 241.014 458.763C239.734 459.089 240.091 460.862 239.647 460.918Z" fill="#FF8D38"/>
</g>
<mask id="mask7" mask-type="alpha" maskUnits="userSpaceOnUse" x="234" y="453" width="17" height="16">
<path fill-rule="evenodd" clip-rule="evenodd" d="M234.384 461.08C234.765 465.454 238.611 469 242.973 469C247.335 469 250.562 465.454 250.179 461.08C249.798 456.705 245.954 453.16 241.591 453.16C237.229 453.16 234.003 456.705 234.384 461.08Z" fill="white"/>
</mask>
<g mask="url(#mask7)">
<path d="M238.548 457.136C238.548 457.136 238.958 457.998 238.725 458.345" stroke="#222222" stroke-width="0.0883463" stroke-linecap="round" stroke-linejoin="round"/>
</g>
<path fill-rule="evenodd" clip-rule="evenodd" d="M134.71 694.447C134.71 694.447 134.617 706.363 132.841 706.743C131.065 707.122 137.027 714.968 137.027 714.968L155.039 713.83L160.747 704.709L156.115 698.19L154.786 692.822L134.71 694.447Z" fill="#A34915"/>
<path fill-rule="evenodd" clip-rule="evenodd" d="M116.406 693.487V707.712L128.894 710.495L135.615 708.217L137.661 691.386L127.767 687.463L116.406 693.487Z" fill="#753217"/>
<path fill-rule="evenodd" clip-rule="evenodd" d="M134.328 706.835C134.328 706.835 132.081 707.206 130.432 705.56C128.783 703.915 121.151 701.781 118.127 705.56C116.406 707.711 115.845 706.536 115.083 706.871C114.323 707.206 113.544 723.15 116.406 723.529C119.269 723.91 128.148 724.163 129.67 723.529C131.193 722.897 133.945 714.078 134.328 706.835Z" fill="#562707"/>
<path fill-rule="evenodd" clip-rule="evenodd" d="M155.166 705.351C155.166 705.351 150.98 711.552 144.892 711.805C138.804 712.058 136.358 709.654 135.615 707.883C134.871 706.11 131.193 705.984 130.178 706.364C129.163 706.743 125.992 723.068 130.178 724.334H192.175C196.518 722.435 197.303 718.385 194.488 713.704C193.347 711.805 182.818 712.691 181.296 711.932C179.774 711.172 165.695 703.2 164.046 702.694C162.397 702.188 157.319 695.207 156.115 698.191C154.913 701.175 155.166 705.351 155.166 705.351Z" fill="#562707"/>
<path fill-rule="evenodd" clip-rule="evenodd" d="M194.72 322.361C194.72 322.361 195.268 330.96 193.899 331.642C192.532 332.325 190.616 335.191 190.89 337.375C191.164 339.559 185.965 359.077 181.86 359.759C177.756 360.442 172.694 358.395 171.873 360.442C171.053 362.49 171.053 365.219 171.053 365.219C171.053 365.219 167.085 356.757 160.108 356.62C153.131 356.484 141.639 356.484 137.672 349.66C137.672 349.66 137.123 348.158 141.912 347.202C146.7 346.247 150.804 336.829 150.804 334.782C150.804 334.782 149.983 335.601 149.3 333.689C148.616 331.779 147.932 323.999 149.436 324.136L150.941 324.272C150.941 324.272 148.069 314.308 151.899 305.572C155.73 296.837 172.039 294.14 179.398 296.837C186.101 299.294 190.89 304.071 193.079 310.077C194.734 314.617 194.72 322.361 194.72 322.361Z" fill="#A34915"/>
<path fill-rule="evenodd" clip-rule="evenodd" d="M120.825 464.051C120.825 464.051 116.358 473.508 114.252 477.974C112.145 482.441 109.248 507.923 112.936 525.787C116.622 543.65 119.308 551.898 117.911 558.628C116.513 565.357 117.212 578.599 118.26 582.084C118.26 582.084 111.273 615.536 112.321 639.579C113.369 663.623 105.965 695.867 111.887 696.961C117.809 698.055 133.938 694.229 133.938 694.229C133.938 694.229 132.183 694.992 138.325 696.961C144.466 698.931 164.829 699.807 165.487 696.961C165.487 683.607 173.199 639.579 178.023 609.653C178.023 603.964 189.209 558.684 189.209 558.684C189.209 558.684 192.28 550.572 191.402 542.475C190.525 534.379 192.175 521.84 192.175 521.84V496.523L173.199 468.514L120.825 464.051Z" fill="#484848"/>
<path fill-rule="evenodd" clip-rule="evenodd" d="M134.195 694.243C134.246 693.317 139.264 601.474 141.759 594.297C143.202 590.15 142.469 583.855 141.822 578.3C141.335 574.118 141.652 570.168 142.31 568.208C143.266 565.354 140.344 551.203 139.377 545.251C137.704 534.955 137.41 528.481 136.732 527.241C135.439 524.876 128.654 510.185 128.654 510.185C128.843 510.658 133.281 521.825 134.589 524.219C135.982 526.766 142.513 563.662 141.043 568.044C140.349 570.114 140.795 573.935 141.31 578.361C141.951 583.859 141.899 590.092 140.495 594.129C137.975 601.374 133.887 690.428 133.681 694.216L134.195 694.243Z" fill="#222222"/>
<path fill-rule="evenodd" clip-rule="evenodd" d="M117.679 599.74C117.706 599.702 120.425 595.979 121.777 592.895C123.172 589.716 118.672 582.266 118.48 581.951L118.04 582.218C118.085 582.293 121.743 588.79 120.455 591.726C119.126 594.758 117.289 599.4 117.263 599.436L117.679 599.74Z" fill="#222222"/>
<path fill-rule="evenodd" clip-rule="evenodd" d="M176.82 584.77L191.56 549.58L191.084 549.382L182.407 567.075L176.82 584.77Z" fill="#222222"/>
<path fill-rule="evenodd" clip-rule="evenodd" d="M172.122 360.511C172.132 360.474 173.185 356.779 174.885 355.272L174.542 354.888C172.73 356.496 171.669 360.215 171.625 360.372L172.122 360.511Z" fill="#753217"/>
<path fill-rule="evenodd" clip-rule="evenodd" d="M151.403 336.436C150.374 335.433 150.984 323.365 150.984 323.365L180.76 324.641L180.169 328.084C180.169 328.084 176.498 335.425 173.899 338.683C173.552 340.115 152.433 337.439 151.403 336.436Z" fill="#222222"/>
<path fill-rule="evenodd" clip-rule="evenodd" d="M194.72 322.361C194.72 322.361 192.631 322.803 188.515 323.444C186.955 323.687 187.451 326.047 185.413 327.56C180.693 323.889 177.023 333.852 177.023 333.852C177.023 333.852 153.603 334.307 151.42 328.858C149.236 323.41 145.93 298.306 163.939 294.807C182.381 291.223 196.345 299.432 194.72 322.361Z" fill="#222222"/>
<path d="M184.888 333.328C186.147 331.23 185.413 326.511 184.888 324.413L190.656 321.267L189.608 324.938L187.51 333.328C186.112 334.202 183.63 335.425 184.888 333.328Z" fill="#222222"/>
<path fill-rule="evenodd" clip-rule="evenodd" d="M181.262 338.669C181.281 338.669 181.3 338.667 181.317 338.666C182.493 338.519 183.111 336.771 183.137 336.697L182.65 336.529C182.503 336.951 181.965 338.066 181.253 338.154C180.634 337.717 180.593 330.438 180.77 328.681C180.807 328.311 181.03 327.964 181.414 327.677C182.179 327.105 183.394 326.889 184.583 327.11C184.992 327.187 185.055 327.374 185.075 327.435C185.285 328.065 184.245 329.513 183.54 330.278L183.919 330.626C184.128 330.4 185.938 328.394 185.565 327.273C185.483 327.028 185.263 326.713 184.678 326.605C183.351 326.356 181.982 326.609 181.105 327.265C180.602 327.641 180.309 328.113 180.257 328.629C180.167 329.529 179.94 337.56 180.931 338.525C181.048 338.639 181.169 338.669 181.262 338.669Z" fill="#753217"/>
<path fill-rule="evenodd" clip-rule="evenodd" d="M193.431 557.833C193.431 557.833 197.089 557.795 197.534 556.462C197.979 555.13 199.314 551.688 198.647 549.467C197.979 547.246 195.197 541.028 194.974 537.586C194.751 534.144 194.529 530.812 195.419 530.257C195.419 530.257 195.865 527.704 193.972 524.817C192.081 521.93 184.752 508.703 184.752 508.703L186.961 503.608L202.067 503.27C202.067 503.27 207.551 520.486 207.329 522.263C207.105 524.039 210.778 539.14 211.446 540.251C212.114 541.361 213.895 546.469 213.45 548.578C213.004 550.688 211.669 558.017 210.556 558.35L209.442 558.684C209.442 558.684 208.998 560.904 207.551 561.792C206.104 562.681 198.313 568.01 196.644 568.122C194.974 568.232 195.754 565.9 195.754 565.9C195.754 565.9 193.082 566.456 192.638 565.235C192.192 564.013 193.861 562.902 194.64 562.569C195.419 562.237 196.309 561.46 196.309 561.46C196.309 561.46 192.638 561.792 191.858 561.237C191.079 560.682 191.889 559.204 193.431 557.833Z" fill="#A34915"/>
<path d="M204.991 550.577C204.991 550.577 203.706 556.24 202.067 557.684C200.428 559.126 196.31 561.459 196.31 561.459" stroke="#753217" stroke-width="0.815323"/>
<path d="M208.664 551.354C208.664 551.354 206.549 559.794 204.991 560.681C203.433 561.57 195.754 565.9 195.754 565.9" stroke="#753217" stroke-width="0.815323"/>
<path fill-rule="evenodd" clip-rule="evenodd" d="M141.912 347.203C141.912 347.203 130.489 349.152 127.035 352.023C123.58 354.895 105.926 363.702 104.007 364.085C102.089 364.468 99.2104 371.935 99.5937 379.21C99.9777 386.485 98.8263 420.563 97.2908 421.712C95.7553 422.861 96.9075 424.775 97.2908 426.498C97.6749 428.221 98.2502 439.709 101.704 441.431C105.159 443.154 113.986 444.112 113.986 444.112C113.986 444.112 113.41 460.96 118.399 463.066C123.389 465.171 135.286 470.149 167.334 469.383C167.334 469.383 169.06 473.404 170.979 474.553C172.898 475.701 171.747 480.488 173.091 484.699C174.433 488.911 183.069 508.822 183.069 508.822C183.069 508.822 198.996 508.056 202.067 503.27C202.067 503.27 198.805 484.508 198.996 477.425C199.188 470.34 197.269 464.789 196.31 463.066C195.35 461.342 196.693 456.173 195.35 453.684C194.007 451.195 190.661 419.032 194.829 404.865C198.996 390.696 180.337 370.566 171.052 365.22L169.062 359.161C168.457 357.318 167.022 355.864 165.184 355.229L141.912 347.203Z" fill="#FE6784"/>
<path fill-rule="evenodd" clip-rule="evenodd" d="M167.185 469.593L167.482 469.172C167.464 469.159 165.702 467.9 166.162 466.676C166.763 465.079 166.381 440.788 165.581 437.278C164.649 433.184 161.373 410.764 164.01 404.979L163.541 404.766C160.866 410.637 162.584 433.266 163.524 437.391C164.401 441.244 166.173 465.181 165.679 466.496C165.08 468.09 167.099 469.532 167.185 469.593Z" fill="#D75674"/>
<path fill-rule="evenodd" clip-rule="evenodd" d="M113.732 444.151L114.243 444.1L112.723 408.25L111.43 401.29L113.542 439.714C112.509 433.328 110.729 421.179 110.607 417.917L103.09 393.645C103.214 396.969 105.554 405.133 107.436 411.694C108.284 414.651 109.016 417.203 109.354 418.664C110.412 423.24 113.698 443.942 113.732 444.151Z" fill="#D75674"/>
<path fill-rule="evenodd" clip-rule="evenodd" d="M108.647 428.516C108.625 428.519 106.375 428.679 103.424 427.766C100.516 426.866 97.5455 421.638 97.5159 421.585L97.0658 421.837C97.1917 422.06 101.219 428.533 104.321 429.493C106.549 430.182 108.647 428.516 108.647 428.516Z" fill="#D75674"/>
<path fill-rule="evenodd" clip-rule="evenodd" d="M181.08 476.959C183.662 476.959 186.617 475.737 188.222 474.773L187.956 474.332C183.449 477.038 171.159 474.328 171.036 474.301L170.923 474.803C171.26 474.878 176.127 476.959 181.08 476.959Z" fill="#D75674"/>
<path fill-rule="evenodd" clip-rule="evenodd" d="M177.429 462.566C185.433 462.566 195.107 454.236 195.52 453.878L195.181 453.49C195.08 453.577 187.717 457.508 186.701 458.027L177.178 462.563C177.261 462.565 177.345 462.566 177.429 462.566Z" fill="#D75674"/>
<path fill-rule="evenodd" clip-rule="evenodd" d="M181.489 468.983C183.225 468.887 184.667 468.429 186.901 467.214C188.875 466.139 190.74 465.125 191.874 465.107C191.882 465.107 192.473 465.303 192.509 465.368C192.909 466.091 192.719 467.417 191.958 468.586L192.391 468.867C192.61 468.53 194.508 465.546 193.828 464.319C193.692 464.074 193.395 463.79 192.733 463.793C191.472 463.813 189.554 464.858 187.522 465.962C185.338 467.151 181.759 468.367 180.139 468.457L181.489 468.983Z" fill="#D75674"/>
<path fill-rule="evenodd" clip-rule="evenodd" d="M106.827 439.671C109.501 439.671 112.859 437.439 113.005 437.341L112.717 436.914C112.681 436.938 106.86 438.923 104.32 438.788L106.576 439.664C106.658 439.669 106.743 439.671 106.827 439.671Z" fill="#D75674"/>
<path fill-rule="evenodd" clip-rule="evenodd" d="M375 723.462H370L405.298 615.268H414.664L375 723.462Z" fill="#855900"/>
<path fill-rule="evenodd" clip-rule="evenodd" d="M495.664 723.462H500.664L465.366 615.268H456L495.664 723.462Z" fill="#855900"/>
<path fill-rule="evenodd" clip-rule="evenodd" d="M436.972 724H433.608L430.608 615.268H439.972L436.972 724Z" fill="#855900"/>
<path fill-rule="evenodd" clip-rule="evenodd" d="M324.643 632.169C324.643 632.169 322.751 660.223 320 662C317.249 663.777 307.065 670.409 304.96 671.864C302.856 673.318 298.326 675.741 298.326 675.741L297.355 682.688L331.789 678.974L338.369 674.282L340.079 655.385L334.89 635.132L324.643 632.169Z" fill="#FFC9A0"/>
<path fill-rule="evenodd" clip-rule="evenodd" d="M366.458 677.988C366.458 677.988 364.84 685.758 365.326 691.735C365.811 697.713 368.886 709.668 368.886 709.668V714.353L320.82 718.877L321.954 715.322C321.954 715.322 331.502 710.96 335.71 709.345C339.918 707.73 345.258 704.66 345.743 701.591C346.229 698.521 344.854 678.959 344.854 678.959L346.391 676.387L366.458 677.988Z" fill="#FFAD71"/>
<path fill-rule="evenodd" clip-rule="evenodd" d="M389.113 565.891C389.113 565.891 342.414 554.768 335.484 565.891C328.553 577.015 321.82 630.388 323.404 631.574C324.989 632.76 333.503 634.342 334.89 635.133C336.276 635.923 345.187 591.248 345.187 591.248L380.013 611.015L389.113 583.735V565.891Z" fill="#002E39"/>
<path fill-rule="evenodd" clip-rule="evenodd" d="M398.729 527.721C398.729 527.721 392.799 527.574 391.723 522.06C390.646 516.545 390.809 513.536 389.113 512.676C387.416 511.817 382.398 507.517 382.398 507.517V522.06L397.967 542.249H403.494L398.729 527.721Z" fill="#FFAD71"/>
<path fill-rule="evenodd" clip-rule="evenodd" d="M406.636 421.042C406.636 421.042 402.386 425.558 403.071 432.539C403.757 439.518 400.466 444.035 399.781 444.855C399.095 445.677 401.426 448.14 402.522 448.414C403.62 448.687 404.854 454.435 404.58 456.899C404.306 459.362 403.62 465.247 407.458 465.11C411.297 464.974 422.402 464.427 424.458 459.088C426.514 453.751 436.796 450.604 436.796 450.604L430.216 427.612L406.636 421.042Z" fill="#FFC9A0"/>
<path d="M404.5 454L407 454C407 454 405.5 458 405 458C404.5 458 404.5 454 404.5 454Z" fill="white"/>
<path fill-rule="evenodd" clip-rule="evenodd" d="M442.468 465.944C442.468 465.944 439.95 456.625 441.459 451.698C442.965 446.772 439.401 432.265 439.401 432.265L415.581 464.274C415.581 464.274 422.402 472.501 421.99 479.207L442.468 465.944Z" fill="#FFC9A0"/>
<path fill-rule="evenodd" clip-rule="evenodd" d="M406.636 421.042C406.636 421.042 402.25 416.252 402.661 414.883C403.071 413.515 405.402 415.705 407.596 414.883C409.789 414.063 421.031 409.273 428.845 409.136C436.66 408.999 451.466 414.063 452.288 425.011C453.111 435.96 455.168 458.404 453.111 464.152C451.055 469.9 442.28 472.774 438.716 472.227C435.152 471.68 422.413 475.577 422.824 472.293C423.235 469.008 425.18 454.709 428.315 451.561C431.45 448.414 431.176 436.096 425.281 436.644C419.386 437.192 420.209 441.297 419.66 441.297C419.112 441.297 413.519 438.834 411.722 435.686C409.926 432.539 407.596 430.485 408.282 428.432C408.967 426.38 406.636 421.042 406.636 421.042Z" fill="#B0B0B0"/>
<path fill-rule="evenodd" clip-rule="evenodd" d="M448.998 467.163C448.998 467.163 427.749 471.542 421.99 479.206C416.233 486.87 411.198 500.384 407.708 505.61C404.217 510.838 395.927 530.219 398.327 536.752C400.726 543.286 403.563 544.158 403.563 544.158C403.563 544.158 396.657 556.159 396.521 558.477L396.385 560.795L392.833 564.795C392.833 564.795 383.754 562.95 381.747 586.131C379.74 609.31 380.027 617.323 380.027 617.323C380.027 617.323 435.354 617.753 438.221 613.746C441.088 609.74 447.568 604.348 450.268 603.54C452.969 602.731 476.461 568.498 476.191 554.481C475.92 540.464 473.765 512.565 471.109 506.933C468.455 501.301 462.482 484.404 458.665 480.263C454.849 476.122 448.998 467.163 448.998 467.163Z" fill="#008392"/>
<path fill-rule="evenodd" clip-rule="evenodd" d="M337.955 667.685C337.955 667.685 342.803 674.735 342.655 678.873C342.506 683.011 330.208 683.496 325.675 683.981C321.144 684.465 301.886 690.281 297.355 688.827C292.823 687.373 287.806 684.627 288.778 681.234C289.748 677.841 295.444 677.335 298.326 675.741C301.207 674.148 304.961 670.249 304.961 671.864C304.961 673.479 306.094 677.037 303.989 678.974C301.886 680.911 302.173 682.35 312 680C321.828 677.651 337.955 667.685 337.955 667.685Z" fill="#F75961"/>
<path fill-rule="evenodd" clip-rule="evenodd" d="M324.705 716.776C324.705 716.776 329.456 713.72 329.346 712.018C329.237 710.314 327.244 710.799 327.026 711.123C326.809 711.445 320.335 716.13 317.26 716.13C314.186 716.13 306.815 720.493 307.301 723.562C307.301 723.562 365.173 723.696 370.666 723.562C371.961 721.785 372.77 710.476 368.886 709.668C365.002 708.86 324.705 716.776 324.705 716.776Z" fill="#F75961"/>
<path fill-rule="evenodd" clip-rule="evenodd" d="M506.447 519.988C498.47 518.21 491.951 520.873 486.578 526.562C479.183 534.392 467 551.5 461.478 579.583C457.78 598.39 444.717 605.685 427 613C412.627 618.934 387.75 617.332 387.75 617.332C387.75 617.332 418.416 623.102 425.363 623.102C432.309 623.102 462.058 627.831 478 612C493.469 596.638 487.183 579.255 493.301 558.33C501 532 509.5 520.669 506.447 519.988Z" fill="#FFDF99"/>
<path fill-rule="evenodd" clip-rule="evenodd" d="M447.125 522.06C447.125 522.06 429.024 598.634 407.738 573.788L447.125 522.06Z" fill="#016273"/>
<path fill-rule="evenodd" clip-rule="evenodd" d="M363.537 505.17C363.537 505.729 368.075 506.181 373.676 506.181C379.274 506.181 383.813 505.729 383.813 505.17C383.813 504.61 379.274 504.158 373.676 504.158C368.075 504.158 363.537 504.61 363.537 505.17Z" fill="#FECFD8"/>
<path fill-rule="evenodd" clip-rule="evenodd" d="M363.537 526.759H383.813V505.168H363.537V526.759Z" fill="#FE6784"/>
<path fill-rule="evenodd" clip-rule="evenodd" d="M366.972 520.792H370.256V507.517H366.972V520.792Z" fill="#FF8DA6"/>
<path fill-rule="evenodd" clip-rule="evenodd" d="M380.024 614.57C380.024 614.57 373.109 617.539 370.336 618.33C367.564 619.12 365.98 626.237 366.574 631.574C367.168 636.912 371.921 671.111 368.356 677.831C368.356 677.831 339.049 680.401 338.652 677.831C338.257 675.261 336.871 643.435 334.891 635.132C332.91 626.83 328.553 602.12 335.88 596.387C343.207 590.653 349.544 590.061 352.514 592.235C355.484 594.41 375.008 608.327 380.024 608.79V614.57Z" fill="#013E4E"/>
<path fill-rule="evenodd" clip-rule="evenodd" d="M372.159 503.499C372.159 503.499 381.207 514.735 381.869 516.167C382.531 517.599 386.679 520.683 387.75 522.996C388.82 525.31 401.201 543.618 403.563 544.158L401.401 553.289L396.385 560.795C396.385 560.795 388.159 542.934 386.945 538.859C385.731 534.783 379.441 532.91 377.676 533.021C375.911 533.13 366.31 532.47 364.545 530.487C362.779 528.504 361.235 526.742 361.235 524.208C361.235 521.674 361.896 506.473 363.441 507.024C364.986 507.574 364.986 509.667 364.986 510.108C364.986 510.549 364.655 520.022 366.973 520.793C369.289 521.564 374.035 520.463 374.476 518.811C374.917 517.158 374.806 515.175 373.593 513.303C372.379 511.429 369.069 507.024 370.062 504.71C371.054 502.396 372.159 503.499 372.159 503.499Z" fill="#FFC9A0"/>
<path fill-rule="evenodd" clip-rule="evenodd" d="M441.829 492.752C441.829 492.752 437.604 477.009 419.364 489.325C415.649 491.833 411.965 509.817 411.722 516.986C411.482 524.074 412.843 529.823 403.562 544.157C394.282 558.491 398.284 561.399 398.284 561.399C398.284 561.399 405.107 573.712 411.722 575.178C418.338 576.645 429.785 557.875 434.778 549.37C439.772 540.865 449.467 516.231 449.467 516.231" fill="#008392"/>
<path fill-rule="evenodd" clip-rule="evenodd" d="M403.14 543.885C411.126 531.549 411.152 525.803 411.179 519.72C411.183 518.811 411.188 517.903 411.219 516.97C411.448 510.218 415.069 491.618 419.081 488.909C425.554 484.538 431.043 483.144 435.399 484.766C440.681 486.734 442.252 492.383 442.316 492.622C442.316 492.622 439.832 487.486 435.037 485.706C431.009 484.208 425.829 485.567 419.646 489.741C416.211 492.061 412.467 509.891 412.226 517.005C412.195 517.926 412.191 518.825 412.187 519.724C412.16 525.685 411.709 531.575 403.563 544.158L403.14 543.885Z" fill="#016273"/>
<path fill-rule="evenodd" clip-rule="evenodd" d="M396.81 560.159C396.422 560.16 405.489 573.282 411.832 574.688C414.871 575.354 421.222 571.464 434.344 549.116C439.261 540.742 443.941 528.451 444.038 528.204L449.936 516.416C447.09 523.661 439.708 541.971 435.213 549.625C424.901 567.186 417.448 575.763 412.485 575.763C412.186 575.763 411.895 575.733 411.613 575.669C404.879 574.177 396.746 561.329 396.385 560.795L396.607 560.463L396.81 560.159Z" fill="#016273"/>
<path fill-rule="evenodd" clip-rule="evenodd" d="M399.994 444.568C398.369 443.328 398.091 440.352 398.048 439.13C397.982 437.28 398.267 434.974 399.049 434.283C399.714 433.699 400.762 433.776 401.774 433.854C402.264 433.892 402.73 433.926 403.125 433.886L403.203 434.666C402.741 434.713 402.219 434.673 401.714 434.635C400.864 434.571 399.985 434.505 399.569 434.872C399.154 435.238 398.759 437.025 398.833 439.103C398.916 441.415 399.528 443.225 400.47 443.945L399.994 444.568Z" fill="#222222"/>
<path fill-rule="evenodd" clip-rule="evenodd" d="M430.299 444.343C430.204 444.343 430.109 444.309 430.033 444.24C427.183 441.638 422.488 437.662 421.238 437.372C419.847 437.049 405.139 437.017 397.556 437.046H397.554C397.338 437.046 397.162 436.871 397.161 436.655C397.16 436.438 397.336 436.262 397.553 436.261C398.451 436.259 419.589 436.183 421.417 436.608C423.267 437.038 429.822 442.984 430.564 443.661C430.724 443.808 430.735 444.056 430.589 444.215C430.511 444.3 430.406 444.343 430.299 444.343Z" fill="#222222"/>
<path fill-rule="evenodd" clip-rule="evenodd" d="M422.402 439.928C422.402 439.928 428.333 437.054 428.315 441.981C428.297 446.908 424.321 452.108 421.305 451.014" fill="#FFC9A0"/>
<path fill-rule="evenodd" clip-rule="evenodd" d="M422.155 451.534C421.819 451.534 421.493 451.477 421.177 451.363C420.984 451.294 420.886 451.08 420.955 450.887C421.025 450.695 421.237 450.596 421.432 450.665C422.411 451.023 423.389 450.555 424.036 450.102C426.253 448.559 427.932 445.067 427.943 441.98C427.947 440.902 427.646 440.166 427.049 439.791C425.54 438.843 422.593 440.249 422.564 440.262C422.377 440.352 422.158 440.275 422.068 440.09C421.978 439.906 422.055 439.684 422.239 439.595C422.375 439.529 425.587 437.998 427.444 439.162C428.274 439.682 428.692 440.632 428.687 441.983C428.675 445.289 426.858 449.042 424.463 450.711C423.678 451.257 422.896 451.534 422.155 451.534Z" fill="#FFAD71"/>
<path fill-rule="evenodd" clip-rule="evenodd" d="M422.205 448.674C422.063 448.674 421.927 448.591 421.866 448.453C421.782 448.266 421.866 448.046 422.054 447.963C422.063 447.96 422.988 447.546 423.693 447.043C423.7 446.987 423.533 446.753 423.145 446.562C422.806 446.395 422.299 446.275 421.983 446.487C421.639 446.715 421.399 446.653 421.259 446.558C420.858 446.288 420.996 445.614 421.205 444.594C421.317 444.048 421.444 443.428 421.409 443.118C421.278 441.91 423.915 441.205 424.726 441.018C424.929 440.969 425.126 441.097 425.172 441.295C425.218 441.495 425.094 441.694 424.894 441.741C423.446 442.075 422.113 442.705 422.149 443.038C422.195 443.463 422.062 444.114 421.933 444.742C421.868 445.059 421.78 445.49 421.752 445.774C422.668 445.388 423.851 445.93 424.271 446.539C424.554 446.947 424.495 447.383 424.124 447.648C423.356 448.195 422.397 448.623 422.356 448.642C422.307 448.663 422.255 448.674 422.205 448.674Z" fill="#FFAD71"/>
<path d="M509.32 382.221L506.802 374.177L532.389 369L509.32 382.221Z" fill="#008392"/>
<path d="M532.389 369L509.32 382.221L509.66 376.365L532.389 369Z" fill="#016273"/>
<path d="M509.66 376.365L532.389 369L518.742 380.629L509.66 376.365Z" fill="#1AD1E6"/>
<path d="M506.802 374.177L500.106 372.906L532.389 369L506.802 374.177Z" fill="#1AD1E6"/>
</svg>
