<?xml version="1.0" standalone="no"?>
<!DOCTYPE svg PUBLIC "-//W3C//DTD SVG 20010904//EN"
 "http://www.w3.org/TR/2001/REC-SVG-20010904/DTD/svg10.dtd">
<svg version="1.0" xmlns="http://www.w3.org/2000/svg"
 width="128.000000pt" height="128.000000pt" viewBox="0 0 128.000000 128.000000"
 preserveAspectRatio="xMidYMid meet">

<g transform="translate(0.000000,128.000000) scale(0.100000,-0.100000)"
fill="#000000" stroke="none">
<path d="M0 1230 c0 -49 0 -50 45 -71 25 -12 49 -29 54 -38 14 -30 12 -93 -4
-111 -21 -24 -9 -49 22 -47 20 2 30 -6 48 -38 13 -22 20 -45 18 -52 -7 -18 24
-28 42 -13 22 18 55 2 62 -30 3 -16 13 -36 22 -44 81 -76 79 -75 118 -69 21 3
42 10 47 14 6 5 15 9 20 9 6 0 3 -5 -7 -11 -18 -10 -18 -11 -1 -24 13 -9 40
-11 91 -8 75 6 91 0 51 -17 -17 -8 -9 -9 32 -4 30 3 69 7 87 8 18 2 38 8 45
13 7 6 28 14 46 18 17 3 32 12 32 18 0 17 50 57 72 57 10 0 18 7 18 15 0 8 4
15 8 15 18 0 52 38 52 58 0 21 24 52 40 52 5 0 7 -7 3 -16 -3 -9 0 -19 6 -24
14 -8 -14 -41 -62 -73 -15 -9 -27 -24 -27 -31 0 -7 -7 -19 -15 -26 -26 -22
-14 -43 25 -45 38 -1 137 20 154 34 14 11 107 31 101 21 -2 -4 -37 -17 -77
-29 -40 -13 -81 -27 -90 -32 -10 -5 -31 -9 -48 -9 -41 0 -110 -29 -110 -46 0
-8 9 -14 20 -14 35 0 23 -36 -34 -101 -21 -24 -33 -34 -27 -21 11 20 9 20 -35
-8 -30 -19 -48 -38 -49 -51 -2 -18 2 -20 34 -15 20 3 30 3 24 0 -7 -3 -13 -11
-13 -18 0 -7 -10 -18 -22 -24 -19 -9 -20 -11 -5 -11 17 -1 17 -2 -1 -21 -26
-28 -123 -24 -152 8 -26 28 -32 27 -67 -1 -27 -22 -80 -27 -68 -6 4 5 -2 9
-12 10 -11 0 -13 3 -5 6 17 6 5 23 -17 23 -9 0 -26 7 -37 16 -10 8 -13 13 -7
9 7 -3 22 -1 33 5 16 9 25 8 36 0 7 -7 21 -10 29 -6 8 3 35 2 60 -3 25 -5 45
-6 45 -2 0 3 -23 17 -50 30 -58 29 -110 73 -110 94 0 12 -9 14 -39 10 -35 -5
-39 -3 -52 25 -7 17 -16 29 -20 26 -4 -2 -12 2 -18 9 -9 11 4 11 72 0 45 -7
87 -11 92 -9 6 3 2 5 -7 5 -23 1 -128 52 -152 73 -10 9 -31 20 -46 23 -15 3
-37 17 -49 31 -15 17 -28 23 -41 19 -21 -7 -83 32 -74 47 3 4 1 8 -3 8 -5 0
-17 15 -28 33 -21 36 -40 57 -51 57 -4 0 -22 17 -40 38 l-33 37 -1 -493 0
-494 638 4 637 3 3 119 3 118 -31 -26 c-29 -24 -50 -33 -50 -21 0 9 60 65 70
65 6 0 10 168 10 510 l0 510 -640 0 -640 0 0 -50z m325 -20 c-3 -5 -11 -10
-16 -10 -6 0 -7 5 -4 10 3 6 11 10 16 10 6 0 7 -4 4 -10z m516 0 c5 0 18 -9
30 -21 11 -11 24 -18 27 -14 4 4 -4 15 -17 26 -23 19 -23 19 -1 19 68 0 82
-59 25 -109 -39 -34 -47 -38 -39 -17 4 10 -2 12 -23 10 -15 -2 -21 -1 -13 3
18 8 39 34 40 49 1 33 -186 49 -226 19 -18 -14 -18 -14 10 -15 47 0 96 -22 96
-42 0 -20 -38 -42 -122 -69 -83 -26 -118 -25 -118 3 0 11 11 36 26 55 14 18
20 33 15 33 -19 0 -51 -39 -52 -62 0 -20 -2 -20 -11 5 -14 38 -5 45 102 86 77
30 196 53 228 45 8 -2 18 -4 23 -4z m385 -65 c-8 -19 -11 -35 -5 -35 15 0 10
-13 -17 -45 -21 -25 -23 -31 -10 -33 22 -5 20 -19 -5 -40 -12 -9 -32 -27 -45
-39 -13 -13 -26 -23 -29 -23 -12 0 -4 28 15 48 11 12 20 34 20 50 0 17 12 45
30 67 17 21 30 45 30 55 0 18 9 30 22 30 4 0 2 -16 -6 -35z m-439 -81 c-15
-13 -33 -24 -40 -24 -6 0 4 13 23 29 19 16 37 27 40 24 3 -3 -8 -16 -23 -29z
m-363 -9 c-4 -8 -11 -12 -16 -9 -6 4 -5 10 3 15 19 12 19 11 13 -6z m16 -55
c13 -8 13 -10 -2 -10 -9 0 -20 5 -23 10 -8 13 5 13 25 0z m220 6 c0 -2 -15 -9
-32 -15 -30 -10 -31 -9 -14 4 18 14 46 20 46 11z m-70 -42 c0 -10 -14 -14 -52
-13 -67 0 -138 14 -118 22 45 18 170 12 170 -9z m186 11 c-10 -8 -23 -12 -28
-9 -14 9 -2 19 24 21 22 2 22 1 4 -12z m482 -25 c-7 -10 -14 -17 -17 -15 -4 4
18 35 25 35 2 0 -1 -9 -8 -20z m-130 -132 c-3 -7 -13 -15 -24 -17 -16 -3 -17
-1 -5 13 16 19 34 21 29 4z m-673 -19 c-53 -12 -74 -9 -41 5 16 8 39 11 50 8
18 -6 17 -7 -9 -13z m116 -25 c-30 -13 -55 -23 -57 -21 -9 8 16 25 51 35 63
16 64 13 6 -14z m-458 -26 c16 -11 26 -22 24 -24 -5 -5 -78 33 -91 47 -17 18
34 0 67 -23z m1102 -38 c-4 -6 -11 -8 -16 -5 -5 4 -17 1 -26 -5 -15 -9 -14
-10 6 -4 37 10 21 -17 -25 -43 -21 -12 -46 -28 -54 -36 -36 -34 -56 -38 -91
-14 -43 29 -48 47 -12 48 l28 1 -30 8 c-18 5 -23 9 -12 10 9 1 22 4 27 5 6 1
27 3 47 4 20 0 33 4 29 9 -4 4 9 12 31 19 48 15 106 16 98 3z m-927 -7 c-10
-2 -18 -9 -18 -14 0 -5 -4 -9 -10 -9 -5 0 -7 7 -4 15 4 8 16 14 28 14 16 -1
17 -2 4 -6z m-96 -21 c59 -17 61 -22 22 -55 -21 -18 -22 -17 -44 18 -16 26
-27 34 -40 30 -11 -3 -20 0 -24 10 -7 20 14 19 86 -3z m163 -2 c3 -5 2 -10 -4
-10 -5 0 -13 5 -16 10 -3 6 -2 10 4 10 5 0 13 -4 16 -10z m-265 -210 c6 -11 7
-20 2 -20 -5 0 -17 9 -27 20 -16 18 -16 20 -2 20 9 0 21 -9 27 -20z m1050 -20
c-20 -13 -33 -13 -25 0 3 6 14 10 23 10 15 0 15 -2 2 -10z m-322 -151 c34 -17
62 -34 62 -40 0 -5 3 -8 8 -7 18 4 43 -17 58 -48 9 -19 15 -37 12 -39 -3 -4
-76 -10 -203 -18 -54 -4 -77 6 -68 29 3 8 -2 32 -11 54 -16 39 -21 101 -11
112 11 10 89 -12 153 -43z m-218 -8 c0 -10 -7 -38 -15 -62 -10 -26 -12 -45 -6
-49 6 -3 9 -13 7 -22 -2 -19 -16 -37 -16 -22 0 13 -173 13 -182 0 -5 -8 -8 -7
-8 2 0 6 -7 12 -15 12 -18 0 -19 9 -1 33 11 14 15 15 19 5 4 -9 6 -8 6 3 1 9
9 23 20 33 15 13 24 15 46 6 27 -10 44 -2 45 22 0 7 80 58 93 58 4 0 7 -8 7
-19z m470 -81 c0 -5 7 -10 15 -10 22 0 18 -17 -7 -34 -20 -12 -44 -14 -102 -7
-6 1 -1 9 10 19 39 37 84 54 84 32z m-851 -31 c-15 -9 -32 -2 -24 11 3 5 13 6
21 3 12 -4 13 -8 3 -14z m31 -29 c0 -5 -4 -10 -9 -10 -6 0 -13 5 -16 10 -3 6
1 10 9 10 9 0 16 -4 16 -10z m320 -80 c24 0 27 -3 22 -22 -5 -23 -19 -38 -35
-38 -5 0 -5 5 -2 10 3 6 2 10 -4 10 -5 0 -22 5 -38 12 -33 13 -37 15 -60 18
-10 2 0 6 22 10 22 4 46 5 53 4 8 -2 26 -4 42 -4z m270 -5 c-14 -8 -33 -14
-42 -15 -10 0 -18 -4 -18 -9 0 -5 -25 -8 -55 -8 -35 1 -55 6 -55 14 0 13 37
21 120 26 30 2 60 4 65 5 6 1 -1 -5 -15 -13z m-193 -25 c2 -12 -3 -20 -12 -20
-15 0 -21 31 -8 43 9 9 16 1 20 -23z m376 13 c-7 -2 -21 -2 -30 0 -10 3 -4 5
12 5 17 0 24 -2 18 -5z m152 -23 c-7 -12 -75 -13 -75 -2 0 5 18 9 41 10 24 1
38 -2 34 -8z m58 3 c3 -5 -6 -9 -19 -9 -13 -1 -24 2 -24 7 0 11 37 12 43 2z"/>
<path d="M795 200 c-3 -5 1 -10 10 -10 9 0 13 5 10 10 -3 6 -8 10 -10 10 -2 0
-7 -4 -10 -10z"/>
<path d="M1040 170 c-13 -8 -12 -10 3 -10 9 0 17 5 17 10 0 12 -1 12 -20 0z"/>
<path d="M0 1094 c0 -38 3 -45 18 -42 21 4 29 53 11 74 -20 25 -29 15 -29 -32z"/>
<path d="M116 885 c18 -27 34 -33 34 -12 0 17 -20 37 -37 37 -10 0 -10 -6 3
-25z"/>
<path d="M186 823 c-12 -13 -5 -21 25 -32 26 -9 30 -8 27 6 -3 17 -42 36 -52
26z"/>
<path d="M928 703 c7 -3 16 -2 19 1 4 3 -2 6 -13 5 -11 0 -14 -3 -6 -6z"/>
</g>
</svg>
